<?xml version="1.0" encoding="UTF-8" standalone="no"?>
<!-- Created with Inkscape (http://www.inkscape.org/) -->

<svg
   xmlns:dc="http://purl.org/dc/elements/1.1/"
   xmlns:cc="http://creativecommons.org/ns#"
   xmlns:rdf="http://www.w3.org/1999/02/22-rdf-syntax-ns#"
   xmlns:svg="http://www.w3.org/2000/svg"
   xmlns="http://www.w3.org/2000/svg"
   xmlns:sodipodi="http://sodipodi.sourceforge.net/DTD/sodipodi-0.dtd"
   xmlns:inkscape="http://www.inkscape.org/namespaces/inkscape"
   width="210mm"
   height="297mm"
   viewBox="0 0 210 297"
   version="1.1"
   id="svg941"
   inkscape:version="0.92.5 (2060ec1f9f, 2020-04-08)"
   sodipodi:docname="yellow.svg">
  <defs
     id="defs935" />
  <sodipodi:namedview
     id="base"
     pagecolor="#ffffff"
     bordercolor="#666666"
     borderopacity="1.0"
     inkscape:pageopacity="0.0"
     inkscape:pageshadow="2"
     inkscape:zoom="0.7"
     inkscape:cx="-12.849216"
     inkscape:cy="537.18711"
     inkscape:document-units="mm"
     inkscape:current-layer="layer1"
     showgrid="false"
     inkscape:window-width="1920"
     inkscape:window-height="996"
     inkscape:window-x="0"
     inkscape:window-y="28"
     inkscape:window-maximized="1" />
  <metadata
     id="metadata938">
    <rdf:RDF>
      <cc:Work
         rdf:about="">
        <dc:format>image/svg+xml</dc:format>
        <dc:type
           rdf:resource="http://purl.org/dc/dcmitype/StillImage" />
        <dc:title />
      </cc:Work>
    </rdf:RDF>
  </metadata>
  <g
     inkscape:label="Ebene 1"
     inkscape:groupmode="layer"
     id="layer1">
    <path
       d="m 36.93446,24.020383 v 0 c 0,-12.968884 10.487553,-23.48229896 23.424652,-23.48229896 h 93.695768 v 0 c 6.21259,0 12.17074,2.47405446 16.5637,6.87782666 4.39298,4.4037733 6.86091,10.3765953 6.86091,16.6044723 V 273.64628 c 0,12.96891 -10.48755,23.48228 -23.42461,23.48228 H 60.359112 c -12.937099,0 -23.424652,-10.51337 -23.424652,-23.48228 z"
       id="path889"
       inkscape:connector-curvature="0"
       style="fill:#595959;fill-rule:evenodd;stroke-width:1.02308059" />
    <path
       d="m 74.23502,64.033671 v 0 c 0,-18.254705 14.762055,-33.053075 32.97196,-33.053075 v 0 c 8.74469,0 17.13125,3.482391 23.31468,9.680999 6.1834,6.198685 9.65724,14.605878 9.65724,23.372076 v 0 c 0,18.254706 -14.76203,33.053075 -32.97192,33.053075 v 0 c -18.209905,0 -32.97196,-14.798369 -32.97196,-33.053075 z"
       id="path893"
       inkscape:connector-curvature="0"
       style="fill:#f4d434;fill-opacity:0.96330273;fill-rule:evenodd;stroke-width:1.02308059" />
    <path
       d="m 74.23502,153.04359 v 0 c 0,-18.2547 14.762055,-33.05307 32.97196,-33.05307 v 0 c 8.74469,0 17.13125,3.48239 23.31468,9.68105 6.1834,6.19864 9.65724,14.60584 9.65724,23.37202 v 0 c 0,18.25475 -14.76203,33.05312 -32.97192,33.05312 v 0 c -18.209905,0 -32.97196,-14.79837 -32.97196,-33.05312 z"
       id="path897"
       inkscape:connector-curvature="0"
       style="fill:#78909c;fill-rule:evenodd;stroke-width:1.02308059" />
    <path
       d="m 74.23502,242.05353 v 0 c 0,-18.25466 14.762055,-33.05304 32.97196,-33.05304 v 0 c 8.74469,0 17.13125,3.48235 23.31468,9.681 6.1834,6.19865 9.65724,14.60584 9.65724,23.37204 v 0 c 0,18.25475 -14.76203,33.05312 -32.97192,33.05312 v 0 c -18.209905,0 -32.97196,-14.79837 -32.97196,-33.05312 z"
       id="path901"
       inkscape:connector-curvature="0"
       style="fill:#78909c;fill-rule:evenodd;stroke-width:1.02308059" />
    <path
       d="m 74.23502,153.04359 v 0 c 0,-18.2547 14.76206,-33.05307 32.97196,-33.05307 v 0 c 8.74469,0 17.13125,3.48239 23.31468,9.68099 6.18341,6.19869 9.65724,14.60588 9.65724,23.37208 v 0 c 0,18.2547 -14.76203,33.05307 -32.97192,33.05307 v 0 c -18.2099,0 -32.97196,-14.79837 -32.97196,-33.05307 z"
       id="path893-3"
       inkscape:connector-curvature="0"
       style="fill:#f4d434;fill-opacity:0.96330273;fill-rule:evenodd;stroke-width:1.02308059" />
    <path
       d="m 74.235018,64.033671 v 0 c 0,-18.2547 14.762051,-33.05307 32.971962,-33.05307 v 0 c 8.74469,0 17.13125,3.48239 23.31468,9.68105 6.1834,6.19864 9.65724,14.60584 9.65724,23.37202 v 0 c 0,18.25475 -14.76203,33.05312 -32.97192,33.05312 v 0 c -18.209911,0 -32.971962,-14.79837 -32.971962,-33.05312 z"
       id="path897-6"
       inkscape:connector-curvature="0"
       style="fill:#78909c;fill-rule:evenodd;stroke-width:1.02308059" />
  </g>
</svg>
